<?xml version="1.0" encoding="UTF-8" standalone="no"?>
<!-- Uploaded to: SVG Repo, www.svgrepo.com, Generator: SVG Repo Mixer Tools -->

<svg
   width="666.74402"
   height="666.74402"
   viewBox="0 0 20.002321 20.002321"
   fill="none"
   version="1.1"
   id="svg1"
   sodipodi:docname="battery-low-svgrepo-com.svg"
   inkscape:version="1.4 (e7c3feb100, 2024-10-09)"
   xmlns:inkscape="http://www.inkscape.org/namespaces/inkscape"
   xmlns:sodipodi="http://sodipodi.sourceforge.net/DTD/sodipodi-0.dtd"
   xmlns="http://www.w3.org/2000/svg"
   xmlns:svg="http://www.w3.org/2000/svg">
  <defs
     id="defs1" />
  <sodipodi:namedview
     id="namedview1"
     pagecolor="#ffffff"
     bordercolor="#000000"
     borderopacity="0.25"
     inkscape:showpageshadow="2"
     inkscape:pageopacity="0.0"
     inkscape:pagecheckerboard="0"
     inkscape:deskcolor="#d1d1d1"
     inkscape:zoom="0.98125"
     inkscape:cx="398.98089"
     inkscape:cy="400"
     inkscape:window-width="1910"
     inkscape:window-height="1017"
     inkscape:window-x="0"
     inkscape:window-y="0"
     inkscape:window-maximized="0"
     inkscape:current-layer="svg1" />
  <path
     d="M 5.4178884,8.0035568 V 11.998764 M 19.170156,10.999962 V 9.0023589 M 4.093596,15.993972 h 10.798077 c 1.14103,0 1.711597,0 2.147391,-0.217738 0.383331,-0.191471 0.695049,-0.497104 0.890332,-0.872953 0.222073,-0.427288 0.222073,-0.986717 0.222073,-2.105475 V 7.2045152 c 0,-1.1187582 0,-1.6781473 -0.222073,-2.1054548 C 17.734113,4.7231812 17.422395,4.4175877 17.039064,4.2260774 16.60327,4.0083485 16.032703,4.0083485 14.891673,4.0083485 H 4.093596 c -1.1410307,0 -1.7115562,0 -2.1473707,0.2177289 C 1.5628631,4.4175877 1.2511857,4.7231812 1.0558628,5.0990604 0.83379927,5.5263679 0.83379927,6.085747 0.83379927,7.2045152 v 5.5932908 c 0,1.118758 0,1.678187 0.22206353,2.105475 0.1953229,0.375849 0.5070003,0.681482 0.8903625,0.872953 0.4358145,0.217738 1.0063298,0.217738 2.1473707,0.217738 z"
     stroke="#000000"
     stroke-width="2"
     stroke-linecap="round"
     stroke-linejoin="round"
     id="path1"
     style="stroke-width:1.66435;stroke-dasharray:none" />
</svg>
