<?xml version="1.0" encoding="UTF-8" standalone="no"?>
<!-- Uploaded to: SVG Repo, www.svgrepo.com, Generator: SVG Repo Mixer Tools -->

<svg
   width="666.74402"
   height="666.74402"
   viewBox="0 0 20.002321 20.002321"
   fill="none"
   version="1.1"
   id="svg1"
   sodipodi:docname="battery-2-symbolic.svg"
   inkscape:version="1.4.2 (ebf0e940d0, 2025-05-08)"
   xmlns:inkscape="http://www.inkscape.org/namespaces/inkscape"
   xmlns:sodipodi="http://sodipodi.sourceforge.net/DTD/sodipodi-0.dtd"
   xmlns="http://www.w3.org/2000/svg"
   xmlns:svg="http://www.w3.org/2000/svg">
  <defs
     id="defs1" />
  <sodipodi:namedview
     id="namedview1"
     pagecolor="#ffffff"
     bordercolor="#000000"
     borderopacity="0.25"
     inkscape:showpageshadow="2"
     inkscape:pageopacity="0.0"
     inkscape:pagecheckerboard="0"
     inkscape:deskcolor="#d1d1d1"
     inkscape:zoom="0.98125"
     inkscape:cx="400"
     inkscape:cy="400.50955"
     inkscape:window-width="1910"
     inkscape:window-height="1018"
     inkscape:window-x="0"
     inkscape:window-y="0"
     inkscape:window-maximized="0"
     inkscape:current-layer="svg1" />
  <path
     d="M 5.5023281,8.0011605 V 12.00116 m 4,-3.9999995 V 12.00116 m 9.4999999,-1 V 9.0011605 M 4.2023281,16.00116 H 14.802328 c 1.1201,0 1.6802,0 2.108,-0.218 0.3763,-0.1917 0.6823,-0.4977 0.874,-0.874 0.218,-0.4278 0.218,-0.9879 0.218,-2.108 V 7.2011605 c 0,-1.1201 0,-1.68016 -0.218,-2.10798 -0.1917,-0.37633 -0.4977,-0.68229 -0.874,-0.87403 -0.4278,-0.21799 -0.9879,-0.21799 -2.108,-0.21799 H 4.2023281 c -1.1201,0 -1.68016,0 -2.10798,0.21799 -0.37633,0.19174 -0.68229,0.4977 -0.87403,0.87403 -0.21799,0.42782 -0.21799,0.98787 -0.21799,2.10798 V 12.80116 c 0,1.1201 0,1.6802 0.21799,2.108 0.19174,0.3763 0.4977,0.6823 0.87403,0.874 0.42782,0.218 0.98787,0.218 2.10798,0.218 z"
     stroke="#000000"
     stroke-width="2"
     stroke-linecap="round"
     stroke-linejoin="round"
     id="path1"
     style="stroke-width:1.66434004;stroke-dasharray:none" />
</svg>
