<?xml version="1.0" encoding="UTF-8" standalone="no"?>
<!-- Uploaded to: SVG Repo, www.svgrepo.com, Generator: SVG Repo Mixer Tools -->

<svg
   width="666.74402"
   height="666.74402"
   viewBox="0 0 20.002321 20.002321"
   fill="none"
   version="1.1"
   id="svg1"
   sodipodi:docname="battery-bolt-alt-svgrepo-com.svg"
   inkscape:version="1.4 (e7c3feb100, 2024-10-09)"
   xmlns:inkscape="http://www.inkscape.org/namespaces/inkscape"
   xmlns:sodipodi="http://sodipodi.sourceforge.net/DTD/sodipodi-0.dtd"
   xmlns="http://www.w3.org/2000/svg"
   xmlns:svg="http://www.w3.org/2000/svg">
  <defs
     id="defs1" />
  <sodipodi:namedview
     id="namedview1"
     pagecolor="#ffffff"
     bordercolor="#000000"
     borderopacity="0.25"
     inkscape:showpageshadow="2"
     inkscape:pageopacity="0.0"
     inkscape:pagecheckerboard="0"
     inkscape:deskcolor="#d1d1d1"
     inkscape:zoom="0.98125"
     inkscape:cx="399.49045"
     inkscape:cy="400"
     inkscape:window-width="1910"
     inkscape:window-height="1017"
     inkscape:window-x="0"
     inkscape:window-y="0"
     inkscape:window-maximized="0"
     inkscape:current-layer="svg1" />
  <path
     d="M 10.502327,4.0011603 6.5023312,10.001161 h 5.9999938 l -3.999995,6 m 10.49999,-5 V 9.0011607 M 5.7023319,4.0011603 H 4.2023331 c -1.1200991,0 -1.6801587,0 -2.1079783,0.21799 C 1.7180251,4.4108904 1.4120653,4.7168504 1.2203255,5.0931804 1.0023356,5.5210004 1.0023356,6.0810605 1.0023356,7.2011605 v 5.6000005 c 0,1.1201 0,1.6802 0.2179899,2.108 0.1917398,0.3763 0.4976996,0.6823 0.8740293,0.874 0.4278196,0.218 0.9878792,0.218 2.1079783,0.218 H 4.5023328 M 14.502324,4.0011603 h 0.3 c 1.120099,0 1.680198,0 2.107998,0.21799 0.3763,0.1917401 0.682299,0.4977001 0.873999,0.8740301 0.218,0.42782 0.218,0.9878801 0.218,2.1079801 v 5.6000005 c 0,1.1201 0,1.6802 -0.218,2.108 -0.1917,0.3763 -0.497699,0.6823 -0.873999,0.874 -0.4278,0.218 -0.987899,0.218 -2.107998,0.218 h -1.489999"
     stroke="#000000"
     stroke-width="2"
     stroke-linecap="round"
     stroke-linejoin="round"
     id="path1"
     style="stroke-width:1.65000004;stroke-dasharray:none" />
</svg>
