<?xml version="1.0" encoding="UTF-8" standalone="no"?>
<!-- Uploaded to: SVG Repo, www.svgrepo.com, Generator: SVG Repo Mixer Tools -->

<svg
   width="666.74402"
   height="666.74402"
   viewBox="0 0 20.002321 20.002321"
   fill="none"
   version="1.1"
   id="svg1"
   sodipodi:docname="battery-icon-symbolic.svg"
   inkscape:version="1.4 (e7c3feb100, 2024-10-09)"
   xmlns:inkscape="http://www.inkscape.org/namespaces/inkscape"
   xmlns:sodipodi="http://sodipodi.sourceforge.net/DTD/sodipodi-0.dtd"
   xmlns="http://www.w3.org/2000/svg"
   xmlns:svg="http://www.w3.org/2000/svg">
  <defs
     id="defs1" />
  <sodipodi:namedview
     id="namedview1"
     pagecolor="#ffffff"
     bordercolor="#000000"
     borderopacity="0.25"
     inkscape:showpageshadow="2"
     inkscape:pageopacity="0.0"
     inkscape:pagecheckerboard="0"
     inkscape:deskcolor="#d1d1d1"
     inkscape:zoom="0.98125"
     inkscape:cx="400"
     inkscape:cy="400"
     inkscape:window-width="1910"
     inkscape:window-height="1017"
     inkscape:window-x="0"
     inkscape:window-y="0"
     inkscape:window-maximized="0"
     inkscape:current-layer="svg1" />
  <path
     d="M 5.5936046,8.0035563 V 11.998765 M 9.6683504,8.0035563 V 11.998765 M 13.743096,8.0035563 v 3.9952087 m 5.602776,-0.998802 V 9.0023584 M 4.2693123,15.993973 H 15.067388 c 1.141031,0 1.711597,0 2.147392,-0.217738 0.383331,-0.191471 0.695049,-0.497104 0.890331,-0.872953 0.222074,-0.427288 0.222074,-0.986717 0.222074,-2.105475 V 7.2045147 c 0,-1.1187583 0,-1.6781474 -0.222074,-2.1054549 C 17.909829,4.7231806 17.598111,4.4175871 17.21478,4.2260768 16.778985,4.0083479 16.208419,4.0083479 15.067388,4.0083479 H 4.2693123 c -1.1410307,0 -1.7115563,0 -2.1473707,0.2177289 C 1.7385793,4.4175871 1.426902,4.7231806 1.2315791,5.0990598 1.0095156,5.5263673 1.0095156,6.0857464 1.0095156,7.2045147 v 5.5932923 c 0,1.118758 0,1.678187 0.2220635,2.105475 0.1953229,0.375849 0.5070002,0.681482 0.8903625,0.872953 0.4358144,0.217738 1.0063298,0.217738 2.1473707,0.217738 z"
     stroke="#000000"
     stroke-width="2"
     stroke-linecap="round"
     stroke-linejoin="round"
     id="path1"
     style="stroke-width:1.66435;stroke-dasharray:none" />
</svg>
