<?xml version="1.0" encoding="UTF-8" standalone="no"?>
<!-- Uploaded to: SVG Repo, www.svgrepo.com, Generator: SVG Repo Mixer Tools -->

<svg
   width="800px"
   height="800px"
   viewBox="0 0 24 24"
   fill="none"
   version="1.1"
   id="svg1"
   sodipodi:docname="speedometer-1-symbolic.svg"
   inkscape:version="1.4 (e7c3feb100, 2024-10-09)"
   xmlns:inkscape="http://www.inkscape.org/namespaces/inkscape"
   xmlns:sodipodi="http://sodipodi.sourceforge.net/DTD/sodipodi-0.dtd"
   xmlns="http://www.w3.org/2000/svg"
   xmlns:svg="http://www.w3.org/2000/svg">
  <defs
     id="defs1" />
  <sodipodi:namedview
     id="namedview1"
     pagecolor="#ffffff"
     bordercolor="#000000"
     borderopacity="0.25"
     inkscape:showpageshadow="2"
     inkscape:pageopacity="0.0"
     inkscape:pagecheckerboard="0"
     inkscape:deskcolor="#d1d1d1"
     inkscape:zoom="0.76757812"
     inkscape:cx="323.09415"
     inkscape:cy="303.55216"
     inkscape:window-width="1910"
     inkscape:window-height="1018"
     inkscape:window-x="0"
     inkscape:window-y="0"
     inkscape:window-maximized="0"
     inkscape:current-layer="svg1" />
  <path
     d="m 11.986395,22.000402 -2e-6,-2.5 m 2e-6,2.5 c 5.522849,10e-7 9.999999,-4.47715 10,-10 m -10,10 c -5.5228005,0 -9.9999996,-4.47715 -9.9999996,-10.000001 m 9.9999996,-7.4999997 -10e-7,-2.4999993 m 0,0 c -5.5227998,3e-7 -9.9999988,4.4771984 -9.9999986,9.999999 M 11.986394,2.000402 c 5.522851,3e-7 10,4.4771995 10.000001,10 m -2.5,0 2.5,0 m -19.9999996,-10e-7 2.4999988,2e-6 M 4.9079936,4.9220023 6.6816947,6.6957019 M 19.064765,4.9220022 17.289245,6.6975023 m 1.77552,12.3028997 -1.736451,-1.736451 m -12.4203205,1.736451 5.5785025,-5.5 M 9.9863969,12.000403 c 10e-7,-1.1046 0.8954001,-1.999999 2.0000011,-2 1.104601,0 2,0.8954 2,2 0,1.104599 -0.8954,2 -2,2 -1.104601,0 -1.999999,-0.895401 -2.0000011,-2 z"
     stroke="#000000"
     stroke-width="2"
     stroke-linecap="round"
     stroke-linejoin="round"
     id="path1"
     style="stroke-width:1.8;stroke-dasharray:none" />
</svg>
