<?xml version="1.0" encoding="UTF-8" standalone="no"?>
<!-- Uploaded to: SVG Repo, www.svgrepo.com, Generator: SVG Repo Mixer Tools -->

<svg
   width="800px"
   height="800px"
   viewBox="0 0 24 24"
   fill="none"
   version="1.1"
   id="svg1"
   sodipodi:docname="speedometer-2-symbolic.svg"
   inkscape:version="1.4 (e7c3feb100, 2024-10-09)"
   xmlns:inkscape="http://www.inkscape.org/namespaces/inkscape"
   xmlns:sodipodi="http://sodipodi.sourceforge.net/DTD/sodipodi-0.dtd"
   xmlns="http://www.w3.org/2000/svg"
   xmlns:svg="http://www.w3.org/2000/svg">
  <defs
     id="defs1" />
  <sodipodi:namedview
     id="namedview1"
     pagecolor="#ffffff"
     bordercolor="#000000"
     borderopacity="0.25"
     inkscape:showpageshadow="2"
     inkscape:pageopacity="0.0"
     inkscape:pagecheckerboard="0"
     inkscape:deskcolor="#d1d1d1"
     inkscape:zoom="0.76757812"
     inkscape:cx="323.09415"
     inkscape:cy="303.55216"
     inkscape:window-width="1910"
     inkscape:window-height="1018"
     inkscape:window-x="0"
     inkscape:window-y="0"
     inkscape:window-maximized="0"
     inkscape:current-layer="svg1" />
  <path
     d="M 4.9153351,4.929339 6.6831037,6.6971045 M 4.9153351,4.929339 c -3.9052446,3.9052432 -3.9052439,10.23689 0,14.142135 m 0,-14.142135 c 3.9052101,-3.9052098 10.2368909,-3.9052445 14.1421359,9e-7 m -1.767767,12.3743681 1.767768,1.767766 m 0,0 c 3.905208,-3.90521 3.905209,-10.2369242 -1e-6,-14.1421341 m 1e-6,14.1421341 c -3.905246,3.905245 -10.2369266,3.905209 -14.1421369,0 M 6.6831025,17.303707 4.9153351,19.071474 M 19.057471,4.9293399 17.289704,6.6971046 m 4.707069,5.3033004 -2.508391,2e-6 m -7.501958,10.010347 1.4e-5,-2.51095 m -9.9549457,-7.443981 2.4557122,-1e-6 M 12.041841,2.0454735 11.986332,9.8791578 m 1.414283,0.7070362 c 0.781069,0.78107 0.781069,2.047356 -1e-6,2.828428 -0.781071,0.78107 -2.047358,0.78107 -2.828427,0 -0.7810695,-0.78107 -0.7810708,-2.047357 0,-2.828427 0.781071,-0.7810714 2.047357,-0.7810697 2.828428,-10e-7 z"
     stroke="#000000"
     stroke-width="2"
     stroke-linecap="round"
     stroke-linejoin="round"
     id="path1"
     style="stroke-width:1.8;stroke-dasharray:none" />
</svg>
