<?xml version="1.0" encoding="UTF-8" standalone="no"?>
<!-- Uploaded to: SVG Repo, www.svgrepo.com, Generator: SVG Repo Mixer Tools -->

<svg
   width="800px"
   height="800px"
   viewBox="0 0 24 24"
   fill="none"
   version="1.1"
   id="svg1"
   sodipodi:docname="speedometer-3-symbolic.svg"
   inkscape:version="1.4 (e7c3feb100, 2024-10-09)"
   xmlns:inkscape="http://www.inkscape.org/namespaces/inkscape"
   xmlns:sodipodi="http://sodipodi.sourceforge.net/DTD/sodipodi-0.dtd"
   xmlns="http://www.w3.org/2000/svg"
   xmlns:svg="http://www.w3.org/2000/svg">
  <defs
     id="defs1" />
  <sodipodi:namedview
     id="namedview1"
     pagecolor="#ffffff"
     bordercolor="#000000"
     borderopacity="0.25"
     inkscape:showpageshadow="2"
     inkscape:pageopacity="0.0"
     inkscape:pagecheckerboard="0"
     inkscape:deskcolor="#d1d1d1"
     inkscape:zoom="0.76757812"
     inkscape:cx="323.09415"
     inkscape:cy="303.55216"
     inkscape:window-width="1910"
     inkscape:window-height="1018"
     inkscape:window-x="0"
     inkscape:window-y="0"
     inkscape:window-maximized="0"
     inkscape:current-layer="svg1" />
  <path
     d="m 22.006498,12.008721 -2.5,3e-6 m 2.5,-3e-6 c 1e-6,-5.5228485 -4.47715,-9.9999984 -10,-9.9999992 m 10,9.9999992 c 0,5.522801 -4.47715,10 -10.000001,10 m -7.4999996,-10 -2.5000001,2e-6 m 0,0 c 1.5e-6,5.522799 4.4771988,9.999998 9.9999997,9.999998 M 2.0064973,12.008723 C 2.0064981,6.4858716 6.4836978,2.0087228 12.006498,2.0087218 m 0,2.5000004 0,-2.5000004 m -1e-6,19.9999992 2e-6,-2.499998 m -7.0784005,-0.4216 1.7736989,-1.773701 M 4.9280985,4.9303519 6.7035984,6.7058716 M 19.006497,4.9303514 17.270047,6.6668029 m 1.736451,12.4203201 -5.5,-5.578502 m -1.5,0.500099 c -1.104599,-1e-6 -1.999998,-0.8954 -2,-2.000002 10e-7,-1.1046 0.895401,-2 2,-1.999999 1.1046,0 2.000001,0.895399 2,1.999999 10e-7,1.104602 -0.8954,2 -2,2.000002 z"
     stroke="#000000"
     stroke-width="2"
     stroke-linecap="round"
     stroke-linejoin="round"
     id="path1"
     style="stroke-width:1.8;stroke-dasharray:none" />
</svg>
